<svg width="126" height="124" viewBox="0 0 126 124" fill="none" xmlns="http://www.w3.org/2000/svg">
<path d="M0 62C0 27.7583 27.7584 0 62 0H64C98.2416 0 126 27.7583 126 62V62C126 96.2417 98.2416 124 64 124H62C27.7584 124 0 96.2417 0 62V62Z" fill="#121212"/>
<path d="M74.4065 52.9352V57.3451V96.6287C70.7013 97.6824 66.8562 98.216 62.9912 98.2127C56.1895 98.2159 49.4994 96.556 43.5544 93.3901C37.6094 90.2242 32.6062 85.6571 29.0185 80.1212L71.0688 22.3658C77.9742 23.7253 84.3796 26.8154 89.6314 31.3208L96.7434 24.5412C87.5376 16.4593 75.4998 11.9836 63.0132 12C56.4464 11.9973 49.9434 13.234 43.8757 15.6396C37.8079 18.0451 32.2943 21.5724 27.6499 26.0199C23.0054 30.4673 19.3211 35.7479 16.8075 41.5598C14.2938 47.3717 13 53.6012 13 59.8922C12.9994 66.1819 14.292 72.41 16.8041 78.2211C19.3161 84.0321 22.9983 89.3122 27.6405 93.7598C32.2827 98.2075 37.7939 101.736 43.8594 104.143C49.9249 106.55 56.4259 107.789 62.9912 107.789C66.8344 107.786 70.6646 107.361 74.4065 106.521V110.653C74.1332 111.848 71.3201 111.252 71.3201 112H90.1781C90.1781 111.252 87.3474 111.848 87.0917 110.653V101.867C94.7299 97.8498 101.139 91.9897 105.684 84.8677C110.229 77.7456 112.751 69.6091 113 61.265V52.9352H74.4065ZM59.3492 21.728L24.3536 69.7976C23.4529 66.5637 22.9978 63.2308 23 59.8838C23.0034 50.3283 26.7332 41.1188 33.4578 34.0616C40.1824 27.0043 49.4166 22.6086 59.3492 21.7365V21.728ZM87.0432 90.4954V61.2777H102.947C102.736 66.9753 101.198 72.5557 98.4466 77.6108C95.6949 82.6659 91.7989 87.0681 87.0432 90.4954Z" fill="white"/>
</svg>
