<svg width="216" height="50" viewBox="0 0 216 50" fill="none" xmlns="http://www.w3.org/2000/svg">
<path d="M19.948 37H0.441162V1.30664H19.948V3.57715H2.95581V17.1025H18.9958V19.373H2.95581V34.7295H19.948V37ZM33.8884 23.3525L24.6355 10.4619H27.5164L35.3777 21.668L43.239 10.4619H46.0955L36.9158 23.3525L46.6814 37H43.7761L35.3777 25.0859L27.0281 37H24.196L33.8884 23.3525ZM64.113 9.94922C67.531 9.94922 70.1759 11.0967 72.0476 13.3916C73.9356 15.6865 74.8796 19.0719 74.8796 23.5479C74.8796 26.5426 74.432 29.0817 73.5369 31.165C72.6417 33.2321 71.364 34.8027 69.7039 35.877C68.06 36.9512 66.0824 37.4883 63.7712 37.4883C62.1762 37.4883 60.7846 37.2523 59.5964 36.7803C58.4246 36.292 57.448 35.641 56.6667 34.8271C55.8855 33.9971 55.2833 33.0856 54.8601 32.0928H54.6892C54.738 33.0205 54.7787 33.9889 54.8113 34.998C54.8438 36.0072 54.8601 36.9593 54.8601 37.8545V48.7432H52.3699V10.4619H54.4207L54.7136 15.7598H54.8601C55.2996 14.7507 55.9181 13.7985 56.7156 12.9033C57.5131 12.0081 58.5222 11.292 59.7429 10.7549C60.9636 10.2178 62.4203 9.94922 64.113 9.94922ZM63.7957 12.1221C61.7937 12.1221 60.1254 12.5615 58.7908 13.4404C57.4724 14.3031 56.4877 15.5726 55.8367 17.249C55.2019 18.9092 54.8764 20.9437 54.8601 23.3525V23.7676C54.8601 26.3555 55.1775 28.512 55.8123 30.2373C56.4633 31.9463 57.4317 33.224 58.7175 34.0703C60.0196 34.9167 61.6309 35.3398 63.5515 35.3398C65.4395 35.3398 67.0346 34.876 68.3367 33.9482C69.6388 33.0205 70.6316 31.6777 71.3152 29.9199C71.9988 28.1621 72.3406 26.0299 72.3406 23.5234C72.3406 19.7962 71.6244 16.9642 70.1921 15.0273C68.7761 13.0905 66.644 12.1221 63.7957 12.1221ZM92.7019 9.99805C93.4018 9.99805 94.061 10.0387 94.6794 10.1201C95.2979 10.2015 95.8757 10.3154 96.4128 10.4619L96.0222 12.7324C95.4851 12.5859 94.9399 12.4801 94.3865 12.415C93.8331 12.3337 93.239 12.293 92.6042 12.293C91.351 12.293 90.2279 12.529 89.2351 13.001C88.2585 13.473 87.4285 14.1484 86.7449 15.0273C86.0613 15.9062 85.5404 16.9642 85.1824 18.2012C84.8243 19.4382 84.6453 20.8216 84.6453 22.3516V37H82.155V10.4619H84.2791L84.5232 15.4668H84.6697C85.0766 14.4414 85.6462 13.5218 86.3787 12.708C87.1274 11.8779 88.0307 11.2188 89.0886 10.7305C90.1466 10.2422 91.351 9.99805 92.7019 9.99805ZM111.672 9.94922C113.934 9.94922 115.814 10.4782 117.311 11.5361C118.825 12.5941 119.948 14.0426 120.68 15.8818C121.429 17.721 121.803 19.8288 121.803 22.2051V23.9873H102.638C102.638 27.6331 103.477 30.4326 105.153 32.3857C106.846 34.3389 109.263 35.3154 112.404 35.3154C114.048 35.3154 115.472 35.1852 116.677 34.9248C117.897 34.6481 119.248 34.1842 120.729 33.5332V35.8037C119.427 36.3896 118.125 36.8128 116.823 37.0732C115.521 37.3499 114.024 37.4883 112.331 37.4883C109.645 37.4883 107.391 36.9349 105.568 35.8281C103.761 34.7051 102.394 33.1263 101.467 31.0918C100.555 29.0573 100.099 26.681 100.099 23.9629C100.099 21.3099 100.539 18.9255 101.418 16.8096C102.313 14.6937 103.615 13.0254 105.324 11.8047C107.049 10.5677 109.165 9.94922 111.672 9.94922ZM111.647 12.0732C109.108 12.0732 107.049 12.9196 105.47 14.6123C103.908 16.2887 102.988 18.7139 102.712 21.8877H119.24C119.24 19.9508 118.963 18.2419 118.41 16.7607C117.857 15.2796 117.018 14.1322 115.895 13.3184C114.788 12.4883 113.372 12.0732 111.647 12.0732ZM145.705 30.042C145.705 31.6208 145.306 32.9717 144.509 34.0947C143.727 35.2015 142.58 36.0479 141.066 36.6338C139.552 37.2035 137.689 37.4883 135.475 37.4883C133.636 37.4883 131.992 37.3255 130.544 37C129.095 36.6745 127.883 36.2757 126.906 35.8037V33.3623C128.127 33.9645 129.478 34.4528 130.959 34.8271C132.44 35.2015 133.962 35.3887 135.524 35.3887C138.259 35.3887 140.228 34.9248 141.432 33.9971C142.637 33.0693 143.239 31.7998 143.239 30.1885C143.239 29.1305 142.938 28.2598 142.336 27.5762C141.75 26.8763 140.903 26.2741 139.797 25.7695C138.69 25.265 137.355 24.7523 135.793 24.2314C134.165 23.6781 132.717 23.1328 131.447 22.5957C130.194 22.0423 129.209 21.318 128.493 20.4229C127.777 19.5114 127.419 18.2744 127.419 16.7119C127.419 14.5798 128.273 12.9196 129.982 11.7314C131.691 10.5433 133.986 9.94922 136.867 9.94922C138.462 9.94922 139.943 10.1038 141.31 10.4131C142.694 10.7061 143.947 11.0885 145.07 11.5605L144.191 13.6602C143.182 13.1882 142.018 12.8057 140.7 12.5127C139.382 12.2197 138.063 12.0732 136.745 12.0732C134.58 12.0732 132.887 12.4557 131.667 13.2207C130.446 13.9857 129.836 15.1087 129.836 16.5898C129.836 17.7292 130.129 18.6243 130.715 19.2754C131.301 19.9102 132.139 20.4473 133.229 20.8867C134.32 21.3099 135.614 21.7819 137.111 22.3027C138.657 22.8398 140.081 23.4014 141.384 23.9873C142.702 24.5732 143.752 25.3301 144.533 26.2578C145.314 27.1855 145.705 28.4469 145.705 30.042ZM168.996 30.042C168.996 31.6208 168.597 32.9717 167.8 34.0947C167.018 35.2015 165.871 36.0479 164.357 36.6338C162.844 37.2035 160.98 37.4883 158.766 37.4883C156.927 37.4883 155.283 37.3255 153.835 37C152.386 36.6745 151.174 36.2757 150.197 35.8037V33.3623C151.418 33.9645 152.769 34.4528 154.25 34.8271C155.731 35.2015 157.253 35.3887 158.815 35.3887C161.55 35.3887 163.519 34.9248 164.723 33.9971C165.928 33.0693 166.53 31.7998 166.53 30.1885C166.53 29.1305 166.229 28.2598 165.627 27.5762C165.041 26.8763 164.194 26.2741 163.088 25.7695C161.981 25.265 160.646 24.7523 159.084 24.2314C157.456 23.6781 156.008 23.1328 154.738 22.5957C153.485 22.0423 152.5 21.318 151.784 20.4229C151.068 19.5114 150.71 18.2744 150.71 16.7119C150.71 14.5798 151.564 12.9196 153.273 11.7314C154.982 10.5433 157.277 9.94922 160.158 9.94922C161.753 9.94922 163.234 10.1038 164.601 10.4131C165.985 10.7061 167.238 11.0885 168.361 11.5605L167.482 13.6602C166.473 13.1882 165.309 12.8057 163.991 12.5127C162.673 12.2197 161.354 12.0732 160.036 12.0732C157.871 12.0732 156.178 12.4557 154.958 13.2207C153.737 13.9857 153.127 15.1087 153.127 16.5898C153.127 17.7292 153.42 18.6243 154.006 19.2754C154.592 19.9102 155.43 20.4473 156.52 20.8867C157.611 21.3099 158.905 21.7819 160.402 22.3027C161.948 22.8398 163.372 23.4014 164.675 23.9873C165.993 24.5732 167.043 25.3301 167.824 26.2578C168.605 27.1855 168.996 28.4469 168.996 30.042ZM175.295 35.2666C175.295 34.5505 175.457 34.0052 175.783 33.6309C176.108 33.2402 176.589 33.0449 177.223 33.0449C177.923 33.0449 178.436 33.2402 178.761 33.6309C179.087 34.0052 179.25 34.5505 179.25 35.2666C179.25 35.9827 179.087 36.5361 178.761 36.9268C178.436 37.3174 177.923 37.5127 177.223 37.5127C176.589 37.5127 176.108 37.3174 175.783 36.9268C175.457 36.5361 175.295 35.9827 175.295 35.2666ZM183.962 49.0117C183.246 49.0117 182.611 48.9548 182.057 48.8408C181.504 48.7432 181.024 48.613 180.617 48.4502V46.3262C181.122 46.5215 181.634 46.6517 182.155 46.7168C182.66 46.7982 183.197 46.8389 183.766 46.8389C185.003 46.8389 185.947 46.4564 186.598 45.6914C187.266 44.9264 187.599 43.7546 187.599 42.1758V10.4619H190.065V42.249C190.065 43.7139 189.813 44.9508 189.308 45.96C188.82 46.9691 188.12 47.7259 187.209 48.2305C186.297 48.7513 185.215 49.0117 183.962 49.0117ZM187.111 2.67383C187.111 2.05534 187.258 1.56706 187.551 1.20898C187.844 0.834635 188.283 0.647461 188.869 0.647461C189.487 0.647461 189.943 0.834635 190.236 1.20898C190.529 1.56706 190.676 2.05534 190.676 2.67383C190.676 3.29232 190.529 3.7806 190.236 4.13867C189.943 4.49674 189.487 4.67578 188.869 4.67578C188.283 4.67578 187.844 4.49674 187.551 4.13867C187.258 3.7806 187.111 3.29232 187.111 2.67383ZM215.529 30.042C215.529 31.6208 215.13 32.9717 214.333 34.0947C213.552 35.2015 212.404 36.0479 210.89 36.6338C209.377 37.2035 207.513 37.4883 205.3 37.4883C203.46 37.4883 201.816 37.3255 200.368 37C198.919 36.6745 197.707 36.2757 196.73 35.8037V33.3623C197.951 33.9645 199.302 34.4528 200.783 34.8271C202.264 35.2015 203.786 35.3887 205.348 35.3887C208.083 35.3887 210.052 34.9248 211.257 33.9971C212.461 33.0693 213.063 31.7998 213.063 30.1885C213.063 29.1305 212.762 28.2598 212.16 27.5762C211.574 26.8763 210.728 26.2741 209.621 25.7695C208.514 25.265 207.179 24.7523 205.617 24.2314C203.989 23.6781 202.541 23.1328 201.271 22.5957C200.018 22.0423 199.033 21.318 198.317 20.4229C197.601 19.5114 197.243 18.2744 197.243 16.7119C197.243 14.5798 198.097 12.9196 199.806 11.7314C201.515 10.5433 203.81 9.94922 206.691 9.94922C208.286 9.94922 209.767 10.1038 211.135 10.4131C212.518 10.7061 213.771 11.0885 214.894 11.5605L214.015 13.6602C213.006 13.1882 211.843 12.8057 210.524 12.5127C209.206 12.2197 207.887 12.0732 206.569 12.0732C204.404 12.0732 202.712 12.4557 201.491 13.2207C200.27 13.9857 199.66 15.1087 199.66 16.5898C199.66 17.7292 199.953 18.6243 200.539 19.2754C201.125 19.9102 201.963 20.4473 203.053 20.8867C204.144 21.3099 205.438 21.7819 206.935 22.3027C208.482 22.8398 209.906 23.4014 211.208 23.9873C212.526 24.5732 213.576 25.3301 214.357 26.2578C215.138 27.1855 215.529 28.4469 215.529 30.042Z" fill="white"/>
</svg>
