<svg width="85" height="85" viewBox="0 0 85 85" fill="none" xmlns="http://www.w3.org/2000/svg">
<path d="M83.0475 38.7293L46.0907 1.77449C43.9639 -0.354193 40.5118 -0.354193 38.3822 1.77449L30.7082 9.44872L40.4431 19.1838C42.7055 18.4195 45.2994 18.9321 47.103 20.7358C48.9149 22.5505 49.4239 25.1668 48.641 27.4367L58.023 36.8189C60.2928 36.0369 62.9118 36.543 64.7247 38.3587C67.2582 40.8914 67.2582 44.9965 64.7247 47.531C62.1902 50.0656 58.0852 50.0656 55.5498 47.531C53.644 45.6234 53.1732 42.8241 54.1381 40.4763L45.3886 31.7265L45.3876 54.752C46.0052 55.0585 46.5885 55.4662 47.103 55.9789C49.6366 58.5116 49.6366 62.6166 47.103 65.153C44.5685 67.6867 40.4617 67.6867 37.9309 65.153C35.3973 62.6166 35.3973 58.5116 37.9309 55.9789C38.5568 55.3538 39.2812 54.8811 40.0539 54.5635V31.3235C39.2812 31.0077 38.5578 30.5378 37.9309 29.9081C36.0112 27.9911 35.5496 25.1742 36.5331 22.8171L26.9375 13.2194L1.59718 38.5584C-0.532393 40.6889 -0.532393 44.1411 1.59718 46.2698L38.5541 83.2255C40.6818 85.3542 44.1329 85.3542 46.2634 83.2255L83.0475 46.4416C85.1762 44.312 85.1762 40.858 83.0475 38.7293Z" fill="#DE4C36"/>
</svg>
