<svg width="71" height="81" viewBox="0 0 71 81" fill="none" xmlns="http://www.w3.org/2000/svg">
<path d="M6.37566 72.2845L0 0.772888H70.0587L63.676 72.2732L34.9864 80.2271L6.37566 72.2845Z" fill="#E44D26"/>
<path d="M35.0294 74.1477L58.2118 67.7203L63.6665 6.6203H35.0294V74.1477Z" fill="#F16529"/>
<path d="M35.0294 33.1429H23.4238L22.6221 24.1617H35.0294V15.391H13.0367L13.2468 17.744L15.4024 41.9133H35.0294V33.1429ZM35.0294 55.9209L34.9908 55.9314L25.223 53.2937L24.5986 46.299H15.7944L17.0233 60.0701L34.9892 65.0575L35.0294 65.0462V55.9209Z" fill="#EBEBEB"/>
<path d="M34.9991 33.1429V41.9133H45.7993L44.781 53.2883L34.9991 55.9282V65.0529L52.9793 60.0701L53.1109 58.5879L55.1722 35.4982L55.3862 33.1429H53.023H34.9991ZM34.9991 15.391V24.1617H56.1844L56.36 22.1902L56.7596 17.744L56.9695 15.391H34.9991Z" fill="white"/>
</svg>
