<svg width="85" height="85" viewBox="0 0 85 85" fill="none" xmlns="http://www.w3.org/2000/svg">
<g clip-path="url(#clip0_11_821)">
<path d="M84.9115 0H0.911453V85H84.9115V0Z" fill="#F7DF1E"/>
<path d="M57.3381 66.4066C59.0301 69.2021 61.2314 71.257 65.1248 71.257C68.3955 71.257 70.4848 69.6028 70.4848 67.3173C70.4848 64.5784 68.3381 63.6083 64.7381 62.0149L62.7648 61.1582C57.0688 58.7026 53.2848 55.6264 53.2848 49.1232C53.2848 43.1328 57.7954 38.5724 64.8448 38.5724C69.8634 38.5724 73.4715 40.3399 76.0714 44.9677L69.9248 48.9613C68.5714 46.5058 67.1115 45.5384 64.8448 45.5384C62.5328 45.5384 61.0675 47.0225 61.0675 48.9613C61.0675 51.3575 62.5341 52.3276 65.9208 53.8117L67.8941 54.6671C74.6008 57.5774 78.3875 60.5443 78.3875 67.2147C78.3875 74.406 72.8048 78.3457 65.3074 78.3457C57.9768 78.3457 53.2408 74.8108 50.9235 70.1776L57.3381 66.4066ZM29.4541 67.0987C30.6941 69.3249 31.8221 71.2071 34.5341 71.2071C37.1275 71.2071 38.7635 70.1803 38.7635 66.188V39.0285H46.6568V66.2959C46.6568 74.5666 41.8648 78.3309 34.8701 78.3309C28.5501 78.3309 24.8901 75.0213 23.0288 71.035L29.4541 67.0987Z" fill="black"/>
</g>
<defs>
<clipPath id="clip0_11_821">
<rect width="84" height="85" fill="white" transform="translate(0.911453)"/>
</clipPath>
</defs>
</svg>
