<svg width="85" height="85" viewBox="0 0 85 85" fill="none" xmlns="http://www.w3.org/2000/svg">
<g clip-path="url(#clip0_11_765)">
<path d="M42.5555 51.0151C46.6904 51.0151 50.0424 47.2028 50.0424 42.5C50.0424 37.7972 46.6904 33.9848 42.5555 33.9848C38.4206 33.9848 35.0685 37.7972 35.0685 42.5C35.0685 47.2028 38.4206 51.0151 42.5555 51.0151Z" fill="#61DAFB"/>
<path d="M42.5555 59.9457C64.7429 59.9457 82.7294 52.135 82.7294 42.5C82.7294 32.865 64.7429 25.0543 42.5555 25.0543C20.368 25.0543 2.38157 32.865 2.38157 42.5C2.38157 52.135 20.368 59.9457 42.5555 59.9457Z" stroke="#61DAFB"/>
<path d="M29.2714 51.2229C40.3651 73.0766 55.3058 86.8872 62.6424 82.0697C69.979 77.2522 66.9333 55.6309 55.8396 33.7772C44.7458 11.9234 29.8051 -1.88719 22.4685 2.93031C15.1319 7.74782 18.1777 29.3691 29.2714 51.2229Z" stroke="#61DAFB"/>
<path d="M29.2714 33.7772C18.1777 55.6309 15.1319 77.2522 22.4685 82.0697C29.8051 86.8872 44.7458 73.0766 55.8396 51.2229C66.9333 29.3692 69.979 7.74784 62.6424 2.93034C55.3058 -1.88716 40.3651 11.9234 29.2714 33.7772Z" stroke="#61DAFB"/>
</g>
<defs>
<clipPath id="clip0_11_765">
<rect width="84" height="85" fill="white" transform="translate(0.555481)"/>
</clipPath>
</defs>
</svg>
