<svg width="85" height="85" viewBox="0 0 85 85" fill="none" xmlns="http://www.w3.org/2000/svg">
<g clip-path="url(#clip0_11_788)">
<path d="M58.7586 59.127C61.8584 58.7863 64.2101 55.9495 64.1031 52.5449C63.9965 49.1406 61.3239 46.417 58.1171 46.417H57.9035C54.5895 46.5306 52.0242 49.481 52.1311 52.9988C52.2381 54.7011 52.8793 56.1763 53.8413 57.1976C50.207 64.801 44.6486 70.3614 36.3109 75.0141C30.6455 78.1916 24.7665 79.3265 18.8875 78.5323C14.0772 77.8513 10.3359 75.5819 7.9839 71.8366C4.56352 66.2762 4.24295 60.2615 7.12913 54.2472C9.16023 49.9348 12.3667 46.7573 14.3978 45.1686C13.9702 43.6934 13.3287 41.1969 13.0081 39.3814C-2.49149 51.2968 -0.887945 67.4111 3.8154 75.0141C7.34274 80.6885 14.5047 84.2063 22.4148 84.2063C24.5526 84.2063 26.6903 83.9792 28.8284 83.4121C42.5109 80.5749 52.8796 71.9502 58.7586 59.127ZM77.572 45.0554C69.4479 34.9555 57.476 29.395 43.7935 29.395H42.0833C41.1212 27.3524 39.0901 25.9904 36.8454 25.9904H36.6315C33.3181 26.104 30.7528 29.0543 30.8595 32.5725C30.9664 35.9768 33.6387 38.7004 36.8454 38.7004H37.0591C39.4107 38.5868 41.4418 36.9981 42.2969 34.8419H44.221C52.3451 34.8419 60.0413 37.3384 66.9896 42.2182C72.3341 45.9631 76.1824 50.8429 78.3201 56.7437C80.1373 61.51 80.0303 66.1626 78.1062 70.1347C75.1133 76.149 70.0894 79.4401 63.462 79.4401C59.1862 79.4401 55.1243 78.0781 52.9862 77.0568C51.8106 78.1916 49.6725 80.0071 48.1759 81.1424C52.7726 83.4118 57.476 84.6602 61.9654 84.6602C72.2272 84.6602 79.8167 78.6455 82.7029 72.6312C85.8027 66.0491 85.5887 54.7011 77.572 45.0554ZM23.2699 61.0557C23.3769 64.4603 26.0491 67.1836 29.2559 67.1836H29.4699C32.7836 67.0704 35.3489 64.1197 35.2419 60.6018C35.1353 57.1972 32.4627 54.474 29.2559 54.474H29.0423C28.8284 54.474 28.5075 54.474 28.2942 54.5872C23.9114 46.8705 22.0943 38.4733 22.7357 29.3947C23.163 22.5858 25.301 16.6847 29.0423 11.8049C32.1421 7.60608 38.1281 5.56345 42.1903 5.45024C53.5208 5.22313 58.3307 20.2025 58.6516 26.2172C60.0413 26.5575 62.3929 27.352 63.9965 27.9195C62.7135 9.53584 52.0242 0.00335693 41.7627 0.00335693C32.1421 0.00335693 23.2699 7.37966 19.7423 18.2738C14.8253 32.7993 18.0321 46.7573 24.0181 57.765C23.4839 58.5592 23.163 59.8073 23.2699 61.0557Z" fill="#764ABC"/>
</g>
<defs>
<clipPath id="clip0_11_788">
<rect width="84" height="85" fill="white" transform="translate(0.555481)"/>
</clipPath>
</defs>
</svg>
