<svg width="116" height="81" viewBox="0 0 116 81" fill="none" xmlns="http://www.w3.org/2000/svg">
<g clip-path="url(#clip0_11_790)">
<path d="M99.5184 46.5328C95.4979 46.5541 92.0164 47.461 89.0965 48.8112C88.0184 46.8073 86.9403 45.0563 86.7608 43.7487C86.5586 42.2299 86.3116 41.3016 86.5586 39.4877C86.8055 37.6735 87.9285 35.1 87.9285 34.8891C87.9059 34.6992 87.6812 33.7711 85.368 33.75C83.0547 33.7289 81.0555 34.1719 80.8309 34.7414C80.6063 35.311 80.1571 36.6188 79.8651 37.9688C79.4608 39.9516 75.2381 46.9758 72.8348 50.6672C72.0487 49.2328 71.3748 47.9672 71.2398 46.9545C71.0379 45.436 70.7906 44.5076 71.0379 42.6938C71.285 40.8795 72.408 38.3063 72.408 38.0953C72.3856 37.9055 72.161 36.9774 69.8477 36.9563C67.534 36.9352 65.5352 37.3782 65.3106 37.9477C65.086 38.5172 64.8389 39.8672 64.3448 41.175C63.8729 42.4828 58.2576 54.211 56.7977 57.2696C56.0565 58.8305 55.4053 60.075 54.9334 60.9188C54.4617 61.7625 54.911 60.9821 54.866 61.0664C54.4617 61.7836 54.2371 62.1844 54.2371 62.1844V62.2057C53.9227 62.7331 53.5858 63.2391 53.4283 63.2391C53.316 63.2391 53.0914 61.8258 53.4732 59.8854C54.3043 55.8141 56.3258 49.4651 56.3035 49.2331C56.3035 49.1276 56.6851 48.0094 55.0006 47.4401C53.3609 46.8705 52.7772 47.8198 52.6422 47.8198C52.5074 47.8198 52.3951 48.1573 52.3951 48.1573C52.3951 48.1573 54.2144 41.0067 48.9137 41.0067C45.5894 41.0067 41.0074 44.4028 38.7389 47.5036C37.3014 48.2419 34.2467 49.8026 31.0123 51.4692C29.7769 52.102 28.4967 52.777 27.2838 53.3887L27.0369 53.1352C20.6131 46.7016 8.73127 42.1453 9.22541 33.4969C9.4051 30.3539 10.5731 22.0641 32.0459 12.0235C49.6329 3.7969 63.7159 6.05393 66.1639 11.0742C69.6453 18.2461 58.6395 31.5774 40.3565 33.4969C33.3936 34.2352 29.7322 31.7039 28.8116 30.7547C27.8458 29.7633 27.711 29.7211 27.3516 29.911C26.7676 30.2063 27.127 31.0922 27.3516 31.6196C27.8907 32.9485 30.1368 35.311 33.9551 36.4922C37.3016 37.5258 45.4776 38.0953 55.3604 34.5094C66.4336 30.4805 75.0811 19.3008 72.543 9.95628C69.96 0.442997 53.1592 -2.67888 37.2793 2.61565C27.8231 5.77972 17.5809 10.7157 10.2137 17.1914C1.45393 24.8696 0.0613493 31.5774 0.645334 34.3617C2.6895 44.2969 17.2664 50.7727 23.1063 55.561C22.8143 55.7084 22.5447 55.8561 22.2977 55.9828C19.3778 57.3326 8.25959 62.7961 5.47444 68.5756C2.3299 75.1147 5.96858 79.8188 8.39436 80.4516C15.8963 82.4133 23.5779 78.8907 27.7332 73.0899C31.8658 67.2891 31.3719 59.7586 29.4627 56.3203L29.3951 56.1938L31.6861 54.9282C33.1688 54.1055 34.6287 53.3461 35.9088 52.692C35.1903 54.5272 34.6734 56.6998 34.4041 59.8639C34.0897 63.5766 35.7069 68.3858 37.8406 70.2842C38.784 71.1066 39.9071 71.1279 40.6033 71.1279C43.074 71.1279 44.1971 69.2082 45.4324 66.9092C46.9598 64.1037 48.3074 60.8553 48.3074 60.8553C48.3074 60.8553 46.6229 69.6514 51.2274 69.6514C52.9119 69.6514 54.5965 67.6053 55.3602 66.5506V66.5717C55.3602 66.5717 55.4051 66.5084 55.4949 66.3608C55.5892 66.2299 55.6791 66.0963 55.7645 65.9602V65.918C56.4383 64.8211 57.9432 62.311 60.1893 58.1555C63.0865 52.7977 65.8719 46.0899 65.8719 46.0899C65.8719 46.0899 66.1414 47.7352 66.9725 50.4352C67.4664 52.0385 68.5445 53.7891 69.3756 55.4977C68.7017 56.3836 68.2975 56.8901 68.2975 56.8901L68.3199 56.9112C67.7811 57.5862 67.1744 58.3036 66.5457 59.0206C64.2547 61.594 61.5145 64.5262 61.1551 65.37C60.7283 66.3612 60.8182 67.0995 61.6492 67.6903C62.2557 68.1122 63.3338 68.1963 64.4793 68.1122C66.5457 67.9854 67.9832 67.5005 68.702 67.2049C69.825 66.8252 71.1053 66.2557 72.3406 65.412C74.5867 63.8512 75.9569 61.6364 75.8221 58.6833C75.7547 57.059 75.1932 55.4559 74.4969 53.9372C74.699 53.6629 74.9014 53.3885 75.1033 53.0934C78.6522 48.2206 81.3924 42.8629 81.3924 42.8629C81.3924 42.8629 81.6619 44.5083 82.493 47.2083C82.9195 48.5794 83.7733 50.0772 84.5369 51.5538C81.2127 54.1061 79.1238 57.0593 78.4051 58.9999C77.0799 62.5858 78.1131 64.21 80.0672 64.5897C80.943 64.7585 82.201 64.3788 83.1441 63.9991C84.3121 63.6405 85.7271 63.0286 87.0301 62.1218C89.2762 60.5608 91.4324 58.3882 91.3201 55.4561C91.2528 54.1061 90.8709 52.7772 90.3543 51.5116C93.1844 50.4147 96.8453 49.7819 101.495 50.3093C111.49 51.4061 113.467 57.2702 113.085 59.7171C112.703 62.1642 110.614 63.5139 109.918 63.9358C109.222 64.3366 108.997 64.4845 109.064 64.7796C109.154 65.2227 109.469 65.2014 110.075 65.1173C110.906 64.9905 115.331 63.1134 115.511 58.5995C115.78 52.7979 109.918 46.4698 99.5184 46.5328ZM22.4324 70.9383C19.1307 74.3344 14.4813 75.6211 12.5047 74.5242C10.3709 73.3641 11.2017 68.3649 15.2674 64.7578C17.7381 62.5641 20.95 60.5391 23.0613 59.2946C23.533 59.0203 24.2518 58.6198 25.1053 58.1344C25.2401 58.0502 25.3299 58.0078 25.3299 58.0078C25.4871 57.9235 25.6668 57.818 25.8465 57.7125C27.3514 62.8594 25.9139 67.3735 22.4324 70.9383ZM46.5779 55.5188C45.4324 58.1555 43.0067 64.9266 41.5467 64.5469C40.2887 64.2305 39.5252 59.1047 41.2994 54.0422C42.1978 51.4897 44.107 48.4524 45.2301 47.2709C47.0496 45.3725 49.026 44.7397 49.5203 45.5201C50.1043 46.5328 47.2967 53.8735 46.5779 55.5188ZM66.5008 64.4625C66.0067 64.6948 65.5574 64.8633 65.3553 64.737C65.1981 64.6526 65.5572 64.3362 65.5572 64.3362C65.5572 64.3362 68.0504 61.826 69.0387 60.6659C69.6002 59.9911 70.274 59.2106 70.9928 58.3245V58.5776C70.993 61.6149 67.8934 63.6399 66.5008 64.4625ZM81.8639 61.1719C81.5045 60.9188 81.5496 60.1383 82.7623 57.6914C83.2342 56.7211 84.3121 55.0969 86.1764 53.5571C86.401 54.1899 86.536 54.8014 86.5133 55.3711C86.491 59.168 83.616 60.5813 81.8639 61.1719Z" fill="#CF649A"/>
</g>
<defs>
<clipPath id="clip0_11_790">
<rect width="115" height="81" fill="white" transform="translate(0.555481)"/>
</clipPath>
</defs>
</svg>
