<svg width="81" height="86" viewBox="0 0 81 86" fill="none" xmlns="http://www.w3.org/2000/svg">
<path d="M68.7939 27.6708V58.1627L40.3432 73.4919L40.086 73.705V85.1012L40.3432 85.322L80.4119 64.2443V21.7558L80.0334 21.6714L68.7371 27.4228L68.7939 27.6708Z" fill="#2F406A"/>
<path d="M11.8011 58.4125L40.3432 73.4919V85.3221L0 64.1611V21.839L0.413995 21.7821L11.6776 27.7458L11.8011 28.0874V58.4125Z" fill="#2379BD"/>
<path d="M11.8011 28.0873L0 21.839L40.2518 0.677979L80.4118 21.7557L68.7939 27.6708L40.2518 12.8414L11.8011 28.0873Z" fill="#03AFEF"/>
<path d="M39.8535 54.9252L39.5444 54.638V43.1883L39.8535 43.043L39.9286 42.7607L50.7072 37.0347L51.037 37.1019V48.8994L39.8535 54.9252Z" fill="#2F406A"/>
<path d="M28.4834 49.2669V37.0171L28.7959 37.0031L39.7602 42.814L39.8535 43.0428V54.925L28.4834 49.2669Z" fill="#2379BD"/>
<path d="M39.6669 30.991L28.4834 37.017L39.8535 43.0428L51.037 37.1017L39.6669 30.991Z" fill="#03AFEF"/>
<path d="M25.936 62.3941L25.6273 62.1069V50.6569L25.936 50.5119L26.0114 50.2295L36.7897 44.5035L37.1196 44.5708V56.368L25.936 62.3941Z" fill="#2F406A"/>
<path d="M14.5662 56.7359V44.4858L14.8784 44.4718L25.8427 50.283L25.936 50.5119V62.3941L14.5662 56.7359Z" fill="#2379BD"/>
<path d="M25.7497 38.46L14.5662 44.4857L25.936 50.5118L37.1195 44.5707L25.7497 38.46Z" fill="#03AFEF"/>
<path d="M54.7649 62.6769L54.4558 62.3897V50.9397L54.7649 50.7947L54.8399 50.5124L65.6186 44.7864L65.9484 44.8536V56.6508L54.7649 62.6769Z" fill="#2F406A"/>
<path d="M43.3947 57.0187V44.7687L43.7073 44.7546L54.6715 50.5659L54.7648 50.7947V62.6769L43.3947 57.0187Z" fill="#2379BD"/>
<path d="M54.5782 38.7429L43.3947 44.7687L54.7648 50.7948L65.9484 44.8537L54.5782 38.7429Z" fill="#03AFEF"/>
<path d="M40.8473 70.1459L40.5386 69.8587V58.4087L40.8473 58.2637L40.9227 57.9811L51.7014 52.2554L52.0309 52.3226V64.1198L40.8473 70.1459Z" fill="#2F406A"/>
<path d="M29.4775 64.4877V52.2376L29.7898 52.2236L40.7544 58.0346L40.8473 58.2637V70.1459L29.4775 64.4877Z" fill="#2379BD"/>
<path d="M40.6611 46.2115L29.4775 52.2376L40.8473 58.2637L52.0309 52.3226L40.6611 46.2115Z" fill="#03AFEF"/>
<path d="M39.8535 38.6862L39.5444 38.3987V26.949L39.8535 26.804L39.9286 26.5214L50.7072 20.7957L51.037 20.8629V32.6601L39.8535 38.6862Z" fill="#2F406A"/>
<path d="M28.4834 33.0281V20.7781L28.7959 20.764L39.7602 26.575L39.8535 26.8041V38.6863L28.4834 33.0281Z" fill="#2379BD"/>
<path d="M39.6669 14.7519L28.4834 20.778L39.8535 26.804L51.037 20.8629L39.6669 14.7519Z" fill="#03AFEF"/>
<path d="M25.936 46.1549L25.6273 45.8677V34.418L25.936 34.2727L26.0114 33.9904L36.7897 28.2644L37.1196 28.3316V40.1292L25.936 46.1549Z" fill="#2F406A"/>
<path d="M14.5662 40.4967V28.2469L14.8784 28.2329L25.8427 34.0439L25.936 34.2727V46.1549L14.5662 40.4967Z" fill="#2379BD"/>
<path d="M25.7497 22.2208L14.5662 28.2469L25.936 34.2727L37.1195 28.3316L25.7497 22.2208Z" fill="#03AFEF"/>
<path d="M54.7649 46.4378L54.4558 46.1506V34.7009L54.7649 34.5556L54.8399 34.2732L65.6186 28.5472L65.9484 28.6145V40.412L54.7649 46.4378Z" fill="#2F406A"/>
<path d="M43.3947 40.7797V28.5299L43.7073 28.5159L54.6715 34.3268L54.7648 34.5557V46.4379L43.3947 40.7797Z" fill="#2379BD"/>
<path d="M54.5782 22.5038L43.3947 28.5298L54.7648 34.5556L65.9484 28.6145L54.5782 22.5038Z" fill="#03AFEF"/>
<path d="M40.8473 53.9068L40.5386 53.6196V42.1696L40.8473 42.0246L40.9227 41.7422L51.7014 36.0162L52.0309 36.0835V47.8807L40.8473 53.9068Z" fill="#2F406A"/>
<path d="M29.4775 48.2485V35.9984L29.7898 35.9844L40.7544 41.7956L40.8473 42.0244V53.9067L29.4775 48.2485Z" fill="#2379BD"/>
<path d="M40.6611 29.9724L29.4775 35.9985L40.8473 42.0245L52.0309 36.0834L40.6611 29.9724Z" fill="#03AFEF"/>
</svg>
