<svg width="96" height="59" viewBox="0 0 96 59" fill="none" xmlns="http://www.w3.org/2000/svg">
<path d="M47.0268 0.739818C30.236 1.27363 25.2456 13.2713 24.1019 19.7711C25.5921 17.3618 30.288 12.0755 37.2019 12.0755C45.2594 12.0755 51.3935 21.0712 55.1363 23.879C59.6836 27.2904 68.8209 31.7947 80.8164 28.1429C90.3814 25.231 94.8174 15.0739 95.7877 10.2555C91.1612 16.5472 84.1433 20.3263 75.462 15.8712C69.4839 12.8034 65.0133 0.167943 47.0268 0.739818Z" fill="#07B6D5"/>
<path d="M23.4804 29.5188C6.68958 30.0526 1.69913 42.0503 0.555481 48.5501C2.04568 46.1408 6.74157 40.8545 13.6554 40.8545C21.7129 40.8545 27.847 49.8501 31.5899 52.658C36.1371 56.0694 45.2744 60.5737 57.2699 56.9219C66.835 54.01 71.271 43.8529 72.2413 39.0345C67.6147 45.3262 60.5969 49.1053 51.9156 44.6502C45.9374 41.5824 41.4668 28.9469 23.4804 29.5188Z" fill="#07B6D5"/>
</svg>
