<svg width="86" height="85" viewBox="0 0 86 85" fill="none" xmlns="http://www.w3.org/2000/svg">
<g clip-path="url(#clip0_11_764)">
<path d="M0.911438 42.5V0.177979H85.5555V84.822H0.911438" fill="#007ACC"/>
<path d="M19.4696 42.6481V46.0973H30.4734V77.4156H38.2818V46.0973H49.2855V42.7116C49.2855 40.8071 49.2855 39.2623 49.2009 39.22C49.2009 39.1565 42.4928 39.1354 34.3458 39.1354L19.5331 39.1989V42.6693L19.4696 42.6481ZM68.9229 39.1142C71.0813 39.6221 72.7319 40.5955 74.2132 42.1402C74.9961 42.9867 76.16 44.4679 76.2446 44.8488C76.2446 44.9758 72.5838 47.4516 70.3619 48.8271C70.2772 48.8906 69.9387 48.5309 69.6001 47.9807C68.4997 46.4148 67.3782 45.7376 65.6218 45.6106C63.0825 45.4413 61.3896 46.7745 61.3896 48.9964C61.3896 49.6736 61.5166 50.0545 61.7705 50.6046C62.3419 51.7685 63.3999 52.4668 66.6799 53.9058C72.7319 56.5086 75.3559 58.2226 76.9429 60.6773C78.7416 63.4282 79.1437 67.7451 77.9375 70.9827C76.5832 74.5166 73.2821 76.9078 68.5632 77.6907C67.0819 77.9447 63.6962 77.9023 62.1091 77.6272C58.7233 76.9924 55.4857 75.2995 53.4965 73.12C52.7136 72.2735 51.2112 70.0093 51.2958 69.8612L52.0999 69.3533L55.2741 67.5123L57.6653 66.1157L58.2155 66.8563C58.9138 67.9567 60.4797 69.4379 61.3896 69.9458C64.1405 71.3636 67.8225 71.1731 69.6424 69.5226C70.4254 68.8031 70.7639 68.0413 70.7639 66.9833C70.7639 66.0099 70.6158 65.5655 70.1291 64.8248C69.452 63.8937 68.0976 63.132 64.2887 61.4391C59.9083 59.5769 58.0462 58.3919 56.311 56.572C55.3164 55.4717 54.4065 53.7576 53.9832 52.3398C53.6658 51.1125 53.56 48.1076 53.8563 46.9015C54.7662 42.6693 57.9615 39.7067 62.5323 38.8603C64.0136 38.564 67.5051 38.691 68.9652 39.0719L68.9229 39.1142Z" fill="white"/>
</g>
<defs>
<clipPath id="clip0_11_764">
<rect width="84.644" height="84.644" fill="white" transform="translate(0.911438 0.177979)"/>
</clipPath>
</defs>
</svg>
