<svg width="86" height="83" viewBox="0 0 86 83" fill="none" xmlns="http://www.w3.org/2000/svg">
<g clip-path="url(#clip0_12_956)">
<path d="M83.4964 12.5817L45.3505 79.3631C44.5629 80.7419 42.5395 80.75 41.7401 79.3779L2.83782 12.5881C1.96691 11.0929 3.27287 9.28179 5.00353 9.58464L43.1903 16.2672C43.4339 16.3098 43.6833 16.3094 43.9269 16.266L81.3151 9.59422C83.0399 9.28644 84.352 11.0835 83.4964 12.5817Z" fill="url(#paint0_linear_12_956)"/>
<path d="M61.3807 0.819524L33.1516 6.23493C32.6876 6.32394 32.3441 6.70889 32.3161 7.17087L30.5796 35.8838C30.5388 36.5601 31.1731 37.085 31.8473 36.9327L39.7067 35.1569C40.4421 34.9909 41.1065 35.625 40.9554 36.349L38.6204 47.5434C38.4632 48.2968 39.1857 48.9411 39.9373 48.7176L44.7916 47.2737C45.5442 47.05 46.2673 47.696 46.1081 48.4501L42.3973 66.034C42.1651 67.1339 43.6594 67.7337 44.2826 66.7907L44.6989 66.1609L67.7016 21.2176C68.0868 20.465 67.4225 19.607 66.5783 19.7665L58.4884 21.2951C57.7282 21.4386 57.0814 20.7454 57.2959 20.0173L62.5761 2.09671C62.7909 1.36729 62.1418 0.673544 61.3807 0.819524Z" fill="url(#paint1_linear_12_956)"/>
</g>
<defs>
<linearGradient id="paint0_linear_12_956" x1="1.88799" y1="7.19797" x2="48.0673" y2="71.2562" gradientUnits="userSpaceOnUse">
<stop stop-color="#41D1FF"/>
<stop offset="1" stop-color="#BD34FE"/>
</linearGradient>
<linearGradient id="paint1_linear_12_956" x1="40.9985" y1="2.2898" x2="49.2374" y2="60.0179" gradientUnits="userSpaceOnUse">
<stop stop-color="#FFEA83"/>
<stop offset="0.0833333" stop-color="#FFDD35"/>
<stop offset="1" stop-color="#FFA800"/>
</linearGradient>
<clipPath id="clip0_12_956">
<rect width="85" height="82" fill="white" transform="translate(0.644043 0.5)"/>
</clipPath>
</defs>
</svg>
