<svg width="86" height="85" viewBox="0 0 86 85" fill="none" xmlns="http://www.w3.org/2000/svg">
<path d="M79.1097 65.5111L44.6581 85V69.8248L66.1206 58.0152L79.1097 65.5111ZM81.4684 63.3781V22.6313L68.8672 29.9147V56.1106L81.4684 63.3781ZM7.18373 65.5111L41.63 85V69.8248L20.1542 58.0125L7.18373 65.5111ZM4.82498 63.3781V22.6313L17.4262 29.9147V56.1106L4.82498 63.3781ZM6.30186 19.9856L41.63 0V14.6678L18.8128 27.2266L6.30186 19.9856ZM79.9862 19.9856L44.6581 0V14.6678L67.4753 27.2133L79.9862 19.9856Z" fill="#8ED6FB"/>
<path d="M41.63 67.0358L20.449 55.3828V32.316L41.63 44.5453V67.0358ZM44.6581 67.0358L65.8417 55.3935V32.3106L44.6581 44.5453V67.0358ZM21.8834 29.6491L43.144 17.9642L64.4047 29.6517L43.144 41.9236L21.8834 29.6491Z" fill="#1C78C0"/>
</svg>
